HIERARCHY
ROOT Hips
{
	OFFSET 0.000000 0.000000 0.000000
	CHANNELS 6 Xposition Yposition Zposition Zrotation Yrotation Xrotation 
	JOINT LHipJoint
	{
		OFFSET 0.000000 0.000000 0.000000
		CHANNELS 3 Zrotation Yrotation Xrotation
		JOINT LeftUpLeg
		{
			OFFSET 1.363060 -1.794630 0.839290
			CHANNELS 3 Zrotation Yrotation Xrotation
			JOINT LeftLeg
			{
				OFFSET 2.448110 -6.726130 0.000000
				CHANNELS 3 Zrotation Yrotation Xrotation
				JOINT LeftFoot
				{
					OFFSET 2.562200 -7.039590 0.000000
					CHANNELS 3 Zrotation Yrotation Xrotation
					JOINT LeftToeBase
					{
						OFFSET 0.157640 -0.433110 2.322550
						CHANNELS 3 Zrotation Yrotation Xrotation
						End Site
						{
							OFFSET 0.000000 0.000000 0.000000
						}
					}
				}
			}
		}
	}
	JOINT RHipJoint
	{
		OFFSET 0.000000 0.000000 0.000000
		CHANNELS 3 Zrotation Yrotation Xrotation
		JOINT RightUpLeg
		{
			OFFSET -1.305520 -1.794630 0.839290
			CHANNELS 3 Zrotation Yrotation Xrotation
			JOINT RightLeg
			{
				OFFSET -2.542530 -6.985550 0.000000
				CHANNELS 3 Zrotation Yrotation Xrotation
				JOINT RightFoot
				{
					OFFSET -2.568260 -7.056230 0.000000
					CHANNELS 3 Zrotation Yrotation Xrotation
					JOINT RightToeBase
					{
						OFFSET -0.164730 -0.452590 2.363150
						CHANNELS 3 Zrotation Yrotation Xrotation
						End Site
						{
							OFFSET 0.000000 0.000000 0.000000
						}
					}
				}
			}
		}
	}
	JOINT LowerBack
	{
		OFFSET 0.000000 0.000000 0.000000
		CHANNELS 3 Zrotation Yrotation Xrotation
		JOINT Spine
		{
			OFFSET 0.028270 2.035590 -0.193380
			CHANNELS 3 Zrotation Yrotation Xrotation
			JOINT Spine1
			{
				OFFSET 0.056720 2.048850 -0.042750
				CHANNELS 3 Zrotation Yrotation Xrotation
				JOINT Neck
				{
					OFFSET 0.000000 0.000000 0.000000
					CHANNELS 3 Zrotation Yrotation Xrotation
					JOINT Neck1
					{
						OFFSET -0.054170 1.746240 0.172020
						CHANNELS 3 Zrotation Yrotation Xrotation
						JOINT Head
						{
							OFFSET 0.104070 1.761360 -0.123970
							CHANNELS 3 Zrotation Yrotation Xrotation
							End Site
							{
								OFFSET 0.000000 0.000000 0.000000
							}
						}
					}
				}
				JOINT LeftShoulder
				{
					OFFSET 0.000000 0.000000 0.000000
					CHANNELS 3 Zrotation Yrotation Xrotation
					JOINT LeftArm
					{
						OFFSET 3.362410 1.200890 -0.311210
						CHANNELS 3 Zrotation Yrotation Xrotation
						JOINT LeftForeArm
						{
							OFFSET 4.983000 -0.000000 -0.000000
							CHANNELS 3 Zrotation Yrotation Xrotation
							JOINT LeftHand
							{
								OFFSET 3.483560 -0.000000 -0.000000
								CHANNELS 3 Zrotation Yrotation Xrotation
								JOINT LeftFingerBase
								{
									OFFSET 0.000000 0.000000 0.000000
									CHANNELS 3 Zrotation Yrotation Xrotation
									JOINT LeftHandIndex1
									{
										OFFSET 0.715260 -0.000000 -0.000000
										CHANNELS 3 Zrotation Yrotation Xrotation
										End Site
										{
											OFFSET 0.000000 0.000000 0.000000
										}
									}
								}
								JOINT LThumb
								{
									OFFSET 0.000000 0.000000 0.000000
									CHANNELS 3 Zrotation Yrotation Xrotation
									End Site
									{
										OFFSET 0.000000 0.000000 0.000000
									}
								}
							}
						}
					}
				}
				JOINT RightShoulder
				{
					OFFSET 0.000000 0.000000 0.000000
					CHANNELS 3 Zrotation Yrotation Xrotation
					JOINT RightArm
					{
						OFFSET -3.136600 1.374050 -0.404650
						CHANNELS 3 Zrotation Yrotation Xrotation
						JOINT RightForeArm
						{
							OFFSET -5.241900 -0.000000 -0.000000
							CHANNELS 3 Zrotation Yrotation Xrotation
							JOINT RightHand
							{
								OFFSET -3.444170 -0.000000 -0.000000
								CHANNELS 3 Zrotation Yrotation Xrotation
								JOINT RightFingerBase
								{
									OFFSET 0.000000 0.000000 0.000000
									CHANNELS 3 Zrotation Yrotation Xrotation
									JOINT RightHandIndex1
									{
										OFFSET -0.622530 -0.000000 -0.000000
										CHANNELS 3 Zrotation Yrotation Xrotation
										End Site
										{
											OFFSET 0.000000 0.000000 0.000000
										}
									}
								}
								JOINT RThumb
								{
									OFFSET 0.000000 0.000000 0.000000
									CHANNELS 3 Zrotation Yrotation Xrotation
									End Site
									{
										OFFSET 0.000000 0.000000 0.000000
									}
								}
							}
						}
					}
				}
			}
		}
	}
}
MOTION
Frames: 11
Frame Time: 0.008333
5.207069 17.198297 5.097447 -143.030985 -79.982253 167.922648 -9.715706 -1.003594 -0.841369 -6.773250 9.109873 -39.320197 -2.641455 -0.183065 12.953185 0.834115 4.017071 -2.115558 0.654300 0.000000 -34.680800 10.109614 0.812706 -2.262291 5.867147 -6.535931 -38.015879 1.639620 -2.849826 38.334667 -0.829903 -3.489239 0.749240 -0.827800 0.000000 -71.849600 -7.392908 0.354313 4.594380 -2.932681 0.650665 -2.241934 -8.525721 0.495396 -0.778690 8.438794 5.297437 -0.054477 -4.229561 -0.355333 1.626884 0.000000 0.000000 0.000000 -3.735512 -6.109831 4.942416 -43.154084 -34.860501 2.952711 -4.064173 -11.252153 -0.047320 5.071737 10.808506 0.488459 -0.174804 0.171123 0.000000 0.000000 0.000000 0.000000 0.000000 0.000000 0.000000 18.402506 7.110146 1.425572 77.433155 28.255922 13.980227 2.651740 20.168468 0.014677 10.215476 -0.353649 -0.024537 -0.058360 -0.078924 0.000000 0.000000 0.000000 0.000000 0.000000 0.000000 0.000000 
5.167604 17.204992 5.097342 -142.815463 -80.017001 167.621496 -9.716572 -0.986093 -0.883190 -6.774379 9.220359 -38.993088 -2.651767 -0.190817 12.823666 0.816920 3.910592 -2.177515 0.631600 0.000000 -34.695700 10.069599 0.827729 -2.151014 5.775623 -6.434441 -37.688370 1.811438 -2.670529 36.178548 -0.736463 -2.995577 0.797851 -0.767700 0.000000 -72.109200 -7.449116 0.346325 4.519357 -2.948831 0.648574 -2.245501 -8.529013 0.499718 -0.777444 8.534196 5.184861 -0.039617 -4.210784 -0.354625 1.634484 0.000000 0.000000 0.000000 -3.416847 -6.148674 4.971937 -42.769237 -35.715331 2.937676 -4.036012 -12.947988 -0.045012 4.182363 11.028430 0.414094 -0.174246 0.168575 0.000000 0.000000 0.000000 0.000000 0.000000 0.000000 0.000000 18.455193 7.133722 1.425036 77.127657 28.546971 14.477830 2.620934 21.016983 0.015262 10.137746 -0.214670 -0.011532 -0.059972 -0.083558 0.000000 0.000000 0.000000 0.000000 0.000000 0.000000 0.000000 
5.129087 17.210951 5.095317 -142.673289 -80.054588 167.395651 -9.718513 -0.969545 -0.925439 -6.779177 9.329848 -38.677038 -2.662067 -0.196837 12.706263 0.800970 3.812414 -2.231435 0.611100 -0.000000 -34.720200 10.030228 0.842288 -2.025125 5.656052 -6.287575 -37.319692 1.974338 -2.476870 33.969396 -0.649975 -2.554747 0.891730 -0.718200 -0.000001 -72.371700 -7.516434 0.336850 4.429722 -2.966983 0.645606 -2.251597 -8.529230 0.503718 -0.775350 8.626994 5.046808 -0.029173 -4.193328 -0.354037 1.641270 0.000000 0.000000 0.000000 -3.078933 -6.157853 4.993527 -42.413503 -36.569539 2.954766 -3.994943 -14.733541 -0.042348 3.269574 11.240263 0.333528 -0.171955 0.165965 0.000000 0.000000 0.000000 0.000000 0.000000 0.000000 0.000000 18.508078 7.139146 1.421665 76.805654 28.880103 15.061839 2.584217 21.948437 0.015875 10.010158 -0.019629 0.006275 -0.061433 -0.089236 0.000000 0.000000 0.000000 0.000000 0.000000 0.000000 0.000000 
5.091832 17.216349 5.091362 -142.647516 -80.099163 167.280071 -9.722213 -0.954616 -0.970192 -6.790213 9.430478 -38.351947 -2.671542 -0.202711 12.586570 0.787292 3.730409 -2.278650 0.593200 0.000000 -34.755700 9.992174 0.857764 -1.889155 5.497891 -6.101644 -36.905340 2.124688 -2.271334 31.725712 -0.570241 -2.166058 1.041001 -0.678700 -0.000000 -72.641300 -7.601653 0.325524 4.333321 -2.988451 0.641645 -2.260530 -8.526473 0.506955 -0.779754 8.718108 4.920692 -0.013259 -4.176237 -0.353569 1.649663 0.000000 0.000000 0.000000 -2.733302 -6.136710 5.010085 -42.070766 -37.417506 2.997348 -3.938347 -16.623902 -0.039517 2.366220 11.474108 0.250859 -0.168011 0.163375 0.000000 0.000000 0.000000 0.000000 0.000000 0.000000 0.000000 18.554343 7.165039 1.415409 76.455214 29.198234 15.646408 2.535987 23.044266 0.016527 9.855911 0.152670 0.021682 -0.063152 -0.095454 0.000000 0.000000 0.000000 0.000000 0.000000 0.000000 0.000000 
5.055598 17.220984 5.085668 -142.672085 -80.153163 167.214954 -9.726340 -0.940033 -1.013352 -6.804215 9.520477 -38.038381 -2.680896 -0.206977 12.485793 0.775066 3.655243 -2.332253 0.575901 0.000000 -34.797400 9.957024 0.873123 -1.743899 5.313947 -5.886489 -36.461351 2.260809 -2.057077 29.474730 -0.496982 -1.829333 1.252404 -0.648801 0.000000 -72.898000 -7.691527 0.311270 4.226512 -3.010234 0.635128 -2.272194 -8.519709 0.507959 -0.787893 8.801464 4.785979 0.004672 -4.158994 -0.353180 1.659047 0.000000 0.000000 0.000000 -2.378965 -6.090335 5.015517 -41.756359 -38.267249 3.020006 -3.861633 -18.566250 -0.036434 1.510820 11.668158 0.168487 -0.162364 0.161382 0.000000 0.000000 0.000000 0.000000 0.000000 0.000000 0.000000 18.586525 7.185665 1.405941 76.095760 29.540760 16.245991 2.480147 24.229437 0.017174 9.659471 0.338521 0.037689 -0.064763 -0.102421 0.000000 0.000000 0.000000 0.000000 0.000000 0.000000 0.000000 
5.020452 17.224930 5.078256 -142.762182 -80.222465 167.211118 -9.731109 -0.925483 -1.054853 -6.821950 9.590739 -37.722822 -2.689369 -0.210702 12.396303 0.765092 3.592517 -2.395036 0.559600 -0.000000 -34.845100 9.926027 0.889170 -1.595392 5.101240 -5.658224 -35.989276 2.380596 -1.838383 27.241775 -0.429413 -1.539709 1.533162 -0.627100 0.000001 -73.133100 -7.789452 0.293509 4.116033 -3.033046 0.625631 -2.285276 -8.509108 0.506360 -0.800599 8.877386 4.643120 0.025720 -4.141822 -0.352879 1.669569 0.000000 0.000000 0.000000 -2.021886 -6.019568 5.008160 -41.463965 -39.122404 3.012987 -3.762642 -20.549439 -0.033205 0.735070 11.825203 0.090912 -0.155229 0.160258 0.000000 0.000000 0.000000 0.000000 0.000000 0.000000 0.000000 18.605856 7.198939 1.393312 75.725688 29.906715 16.853159 2.416188 25.509823 0.017795 9.424017 0.523442 0.052797 -0.066282 -0.110020 0.000000 0.000000 0.000000 0.000000 0.000000 0.000000 0.000000 
4.986549 17.228225 5.069156 -142.912588 -80.311846 167.257406 -9.736250 -0.910352 -1.093777 -6.843521 9.635591 -37.399896 -2.696592 -0.214138 12.317693 0.757518 3.542947 -2.470447 0.543800 0.000000 -34.895300 9.900479 0.906215 -1.449501 4.863872 -5.434827 -35.494599 2.482839 -1.620131 25.054712 -0.366856 -1.292554 1.888303 -0.612500 -0.000000 -73.335000 -7.893991 0.271713 4.007008 -3.056418 0.612615 -2.298957 -8.494413 0.501614 -0.819143 8.944504 4.492839 0.051485 -4.124354 -0.352653 1.681669 0.000000 0.000000 0.000000 -1.667835 -5.928255 4.985947 -41.190777 -39.984217 2.968290 -3.640009 -22.556266 -0.029918 0.068081 11.939474 0.022233 -0.146909 0.160318 0.000000 0.000000 0.000000 0.000000 0.000000 0.000000 0.000000 18.608685 7.203037 1.377284 75.348353 30.296869 17.452148 2.344515 26.877410 0.018373 9.152967 0.702780 0.066405 -0.067699 -0.118198 0.000000 0.000000 0.000000 0.000000 0.000000 0.000000 0.000000 
4.953779 17.230875 5.058407 -143.099987 -80.424296 167.328718 -9.741477 -0.893635 -1.128665 -6.867632 9.653595 -37.068116 -2.702593 -0.217254 12.251763 0.751883 3.503127 -2.561001 0.528100 -0.000000 -34.942600 9.881773 0.923696 -1.311518 4.610370 -5.234222 -34.983558 2.567317 -1.407316 22.941410 -0.308752 -1.083535 2.321648 -0.603801 -0.000000 -73.493499 -8.001197 0.246114 3.903011 -3.079278 0.596150 -2.313837 -8.474887 0.493496 -0.848406 9.000554 4.353537 0.088800 -4.105236 -0.352479 1.697228 0.000000 0.000000 0.000000 -1.322693 -5.826743 4.948200 -40.936859 -40.840474 2.878252 -3.493209 -24.577782 -0.026699 -0.464423 12.011754 -0.033850 -0.137794 0.161837 0.000000 0.000000 0.000000 0.000000 0.000000 0.000000 0.000000 18.584712 7.214906 1.357546 74.965802 30.683854 17.988421 2.263935 28.349036 0.018920 8.861821 0.851511 0.076614 -0.069214 -0.126780 0.000000 0.000000 0.000000 0.000000 0.000000 0.000000 0.000000 
4.922076 17.232868 5.046100 -143.293831 -80.562117 167.392073 -9.746165 -0.874335 -1.157982 -6.891682 9.643581 -36.727379 -2.707177 -0.219767 12.200429 0.747745 3.470083 -2.666205 0.512101 -0.000000 -34.986400 9.871250 0.941375 -1.187178 4.352156 -5.074970 -34.463531 2.634790 -1.204992 20.929666 -0.254726 -0.908471 2.833343 -0.599800 -0.000000 -73.603000 -8.106647 0.216835 3.808046 -3.100862 0.576271 -2.326973 -8.451458 0.482557 -0.881033 9.045202 4.186938 0.128272 -4.086033 -0.352366 1.713715 0.000000 0.000000 0.000000 -0.992893 -5.708768 4.890030 -40.694508 -41.715008 2.751912 -3.322752 -26.582761 -0.023643 -0.840369 12.025873 -0.073834 -0.128322 0.165138 0.000000 0.000000 0.000000 0.000000 0.000000 0.000000 0.000000 18.543360 7.191419 1.333869 74.584750 31.124254 18.543015 2.178980 29.859945 0.019350 8.523199 1.023313 0.087323 -0.070301 -0.136094 0.000000 0.000000 0.000000 0.000000 0.000000 0.000000 0.000000 
4.891547 17.234468 5.031926 -143.580710 -80.731132 167.523396 -9.752744 -0.852521 -1.183462 -6.922276 9.598809 -36.347814 -2.709298 -0.224198 12.137029 0.746121 3.455471 -2.774153 0.497700 -0.000000 -35.026600 9.868300 0.959656 -1.083975 4.081659 -4.975616 -33.933676 2.684844 -1.019073 19.049403 -0.204211 -0.758132 3.418494 -0.598000 -0.000000 -73.666900 -8.225617 0.184259 3.730837 -3.123943 0.553921 -2.341128 -8.422598 0.468822 -0.933611 9.080547 4.063621 0.191547 -4.063628 -0.352307 1.736744 0.000000 0.000000 0.000000 -0.679618 -5.598974 4.816458 -40.466475 -42.564154 2.572707 -3.130142 -28.595618 -0.020940 -1.055935 12.016897 -0.097022 -0.118903 0.170199 0.000000 0.000000 0.000000 0.000000 0.000000 0.000000 0.000000 18.467429 7.205931 1.305634 74.196940 31.509880 18.942697 2.082524 31.517001 0.019801 8.200518 1.130097 0.092532 -0.072056 -0.145619 0.000000 0.000000 0.000000 0.000000 0.000000 0.000000 0.000000 
4.861978 17.235558 5.016179 -143.843916 -80.925874 167.610137 -9.758769 -0.826713 -1.202198 -6.950457 9.533487 -35.955993 -2.710279 -0.227721 12.085295 0.744375 3.439016 -2.887884 0.482700 -0.000000 -35.060700 9.874476 0.976639 -1.002755 3.826440 -4.943158 -33.405555 2.720416 -0.852278 17.320732 -0.158154 -0.636529 4.070559 -0.599400 -0.000000 -73.685900 -8.337919 0.149870 3.668355 -3.144489 0.529861 -2.353688 -8.389589 0.453729 -0.993872 9.103528 3.926257 0.263313 -4.039884 -0.352288 1.762450 0.000000 0.000000 0.000000 -0.389644 -5.484519 4.721161 -40.249928 -43.422399 2.361102 -2.917815 -30.575947 -0.018688 -1.099166 11.954847 -0.101813 -0.109986 0.177343 0.000000 0.000000 0.000000 0.000000 0.000000 0.000000 0.000000 18.365549 7.196043 1.272376 73.814190 31.924461 19.317676 1.981669 33.220056 0.020127 7.842606 1.255242 0.097840 -0.073540 -0.155883 0.000000 0.000000 0.000000 0.000000 0.000000 0.000000 0.000000 
